# xmcd
#
# Track frame offsets: 
#        150
#        22790
#        53090
#        75815
#        98465
#        121105
#        140230
#        160930
#        180880
#        199030
#        220367
#        242867
#
# Disc length: 3631 seconds
#
# Revision: 0
# Processed by: cddbd v1.5.2PL0 Copyright (c) Steve Scherf et al.
# Submitted via: ExactAudioCopyFreeDBPlugin 1.0
#
DISCID=8d0e2d0c
DTITLE=มาลีฮวนน่า - ยรรโฟล์ค [CD2]
DYEAR=2013
DGENRE=Country
TTITLE0=วาง
TTITLE1=ขุนเขายะเยือก
TTITLE2=นกบินลัดฟ้า
TTITLE3=ออกเล
TTITLE4=ไอ้ใบ้
TTITLE5=คนปากบารา
TTITLE6=ระบำชีวิต
TTITLE7=ถนนชีวิต
TTITLE8=วัยวุ่น
TTITLE9=กลัว
TTITLE10=เมืองหิว
TTITLE11=ข้าแผ่นดิน
EXTD=
EXTT0=
EXTT1=
EXTT2=
EXTT3=
EXTT4=
EXTT5=
EXTT6=
EXTT7=
EXTT8=
EXTT9=
EXTT10=
EXTT11=
PLAYORDER=
